<svg width="68" height="60" viewBox="0 0 68 60" fill="none" xmlns="http://www.w3.org/2000/svg">
<path d="M0.284031 59V51.944L14.684 29.696C15.74 28.064 16.724 26.504 17.636 25.016C18.596 23.528 19.364 21.992 19.94 20.408C20.564 18.776 20.876 17 20.876 15.08C20.876 12.92 20.492 11.264 19.724 10.112C18.956 8.96 17.756 8.384 16.124 8.384C14.588 8.384 13.388 8.816 12.524 9.68C11.66 10.544 11.06 11.672 10.724 13.064C10.436 14.456 10.292 15.992 10.292 17.672V20.12H0.500032V17.528C0.500032 14.072 1.00403 11.048 2.01203 8.456C3.06803 5.816 4.72403 3.752 6.98003 2.264C9.23603 0.775996 12.188 0.0319953 15.836 0.0319953C20.828 0.0319953 24.572 1.376 27.068 4.064C29.564 6.752 30.812 10.496 30.812 15.296C30.812 17.696 30.476 19.88 29.804 21.848C29.132 23.768 28.244 25.616 27.14 27.392C26.036 29.168 24.836 30.992 23.54 32.864L11.588 51.008H29.3V59H0.284031ZM52.3451 59.792C48.7451 59.792 45.8171 58.952 43.5611 57.272C41.3051 55.592 39.6491 53.312 38.5931 50.432C37.5851 47.504 37.0811 44.24 37.0811 40.64V20.192C37.0811 16.4 37.5131 12.992 38.3771 9.968C39.2411 6.896 40.7771 4.472 42.9851 2.696C45.1931 0.919995 48.2891 0.0319953 52.2731 0.0319953C55.6811 0.0319953 58.4411 0.607996 60.5531 1.76C62.7131 2.864 64.2971 4.496 65.3051 6.656C66.3131 8.816 66.8171 11.48 66.8171 14.648C66.8171 14.792 66.8171 14.96 66.8171 15.152C66.8651 15.296 66.8891 15.44 66.8891 15.584H57.3131C57.3131 12.992 57.0011 11.048 56.3771 9.752C55.7531 8.456 54.4091 7.808 52.3451 7.808C51.0971 7.808 50.0891 8.192 49.3211 8.96C48.5531 9.728 47.9771 11 47.5931 12.776C47.2571 14.504 47.0891 16.832 47.0891 19.76V26.744C47.7611 25.64 48.7691 24.776 50.1131 24.152C51.5051 23.48 53.1131 23.144 54.9371 23.144C58.1051 23.096 60.6011 23.792 62.4251 25.232C64.2491 26.672 65.5451 28.664 66.3131 31.208C67.1291 33.752 67.5371 36.656 67.5371 39.92C67.5371 43.712 67.0571 47.12 66.0971 50.144C65.1371 53.12 63.5531 55.472 61.3451 57.2C59.1371 58.928 56.1371 59.792 52.3451 59.792ZM52.4171 52.088C53.8091 52.088 54.8651 51.656 55.5851 50.792C56.3051 49.928 56.8091 48.728 57.0971 47.192C57.3851 45.656 57.5291 43.856 57.5291 41.792C57.5291 39.68 57.4331 37.808 57.2411 36.176C57.0971 34.496 56.6651 33.176 55.9451 32.216C55.2251 31.208 54.0251 30.704 52.3451 30.704C51.5291 30.704 50.7611 30.872 50.0411 31.208C49.3691 31.496 48.7691 31.88 48.2411 32.36C47.7611 32.84 47.3771 33.32 47.0891 33.8V42.944C47.0891 44.576 47.2331 46.088 47.5211 47.48C47.8571 48.872 48.4091 50 49.1771 50.864C49.9931 51.68 51.0731 52.088 52.4171 52.088Z" fill="#F7654A"/>
</svg>
